# xmcd CD database file
#
# Track frame offsets:
#	150
#	17378
#	30848
#	55496
#	72923
#	85735
#	100702
#	114860
#	126864
#	137954
#	152873
#	166867
#	179369
#
# Disc length: 2712 seconds
#
# Revision: 0
# Processed by: cddbd v1.5.2PL0 Copyright (c) Steve Scherf et al.
# Submitted via: CDex 1.70beta2
#
DISCID=9c0a960d
DTITLE=Feral Swing Cats - Come out swingin'
DYEAR=1998
DGENRE=Country
TTITLE0=01-Lonesome Me
TTITLE1=02-Airmail Special
TTITLE2=03-Night Life
TTITLE3=04-Perdido
TTITLE4=05-Alone in San Antonio
TTITLE5=06-I'm So Lonesome I Could Cry
TTITLE6=07-Tiger Rag
TTITLE7=08-Right or Wrong
TTITLE8=09-Curtain Call
TTITLE9=10-Sweet Kind of Love
TTITLE10=11-Song of the Wanderer
TTITLE11=12-Choo Choo Cha Boogie
TTITLE12=13-Cherokee
EXTD=YEAR: 1998
EXTT0=
EXTT1=
EXTT2=
EXTT3=
EXTT4=
EXTT5=
EXTT6=
EXTT7=
EXTT8=
EXTT9=
EXTT10=
EXTT11=
EXTT12=
PLAYORDER=
